
<svg id="Layer_1" xmlns="http://www.w3.org/2000/svg" version="1.1" viewBox="0 0 302.09 146.91">
  <!-- Generator: Adobe Illustrator 30.0.0, SVG Export Plug-In . SVG Version: 2.1.1 Build 123)  -->
  <defs>
    <style>
      .st0 {
        fill: #231f20;
      }
    </style>
  </defs>
  <path class="st0" d="M38.22,68.22c-15.51,0-21.86-15.59-21.86-28.96,0-14.03,7.43-28.96,23.27-28.96,11.47,0,14.36,12.62,14.36,21.86,0,.74,0,1.57-.08,2.31h-17.74c.58-2.48.99-5.03.99-7.59,0-2.31-.33-6.27-3.47-6.27-5.2,0-7.18,8.75-7.18,12.71,0,7.51,4.04,13.04,11.96,13.04,5.69,0,12.29-3.05,16.34-7.1v21.29c-3.63,4.87-10.73,7.67-16.58,7.67Z"/>
  <path class="st0" d="M70.65,68.22h-10.89V10.87h9.9s25.16-2.15,25.16,17.66c0,8.91-4.29,13.78-10.31,16.34l11.88,23.43h-16.09l-10.4-20.38.74,20.3ZM69.74,20.77l.08,9.16c4.7-.16,7.1-1.73,7.1-4.37,0-4.7-5.86-4.79-7.18-4.79Z"/>
  <path class="st0" d="M99.03,68.22l.58-57.34h35.73v11.22l-25.58-.58.08,6.11h18.89v10.64l-18.73-.08.16,8.75,25.17-.33v21.62h-36.3Z"/>
  <path class="st0" d="M165.93,10.87l12.38,57.26h-16.09l-1.57-7.59h-12.21l-1.49,7.59h-9.98l12.46-57.26h16.5ZM158.43,50.56l-3.88-17.82-3.88,17.82h7.76Z"/>
  <path class="st0" d="M200.25,68.22l-7.84-24.26.74,24.26h-12.29l.58-57.34h16.17l12.71,38.37,10.81-38.37h18.48v57.34h-16.17v-27.64l-6.93,27.64h-16.25Z"/>
  <path class="st0" d="M271.7,68.22h-16.17v-28.47l-14.03-28.88h11.63l7.92,16.25,7.84-16.25h16.83l-14.03,28.96v28.38Z"/>
  <path class="st0" d="M48.53,110.34c0,12.21-7.97,24.77-20.61,24.77h-10.41l.5-49.9h8.69c15.65.22,21.83,12.56,21.83,25.13ZM32.95,104.45c-.07-5.31-2.08-10.48-6.25-10.63l.14,22.19c4.09-.43,6.1-6.03,6.1-11.56Z"/>
  <path class="st0" d="M51.62,135.11l.5-49.9h31.09v9.76l-22.26-.5.07,5.31h16.44v9.26l-16.3-.07.14,7.61,21.9-.29v18.81h-31.59Z"/>
  <path class="st0" d="M86.94,135.03l.5-49.83h8.69l.5,31.3,21.9-.29v18.81h-31.59Z"/>
  <path class="st0" d="M121.4,134.6v-49.4h14.07v49.4h-14.07Z"/>
  <path class="st0" d="M172.38,129.72s-4.95,6.89-14.36,6.89c-13.14,0-19.31-13.36-19.1-26.28.22-13.07,6.96-25.63,18.74-25.63,10.55,0,14.22,10.05,13.57,17.59h-15.44c.29-1.44,1.94-8.33-1.87-8.33-3.52,0-6.25,5.82-6.17,11.56.07,3.45,1.22,10.99,7.32,10.99,2.15,0,3.45-.93,3.45-3.3l-3.81-.07v-7.47h17.66v24.05Z"/>
  <path class="st0" d="M190.69,135.03h-14.07v-49.83h14.07v20.03h9.76v-20.03h14.07v49.83h-14.07v-20.53l-9.76-.07v20.61Z"/>
  <path class="st0" d="M238.15,104.02l.5,31.09h-9.98l.29-31.02h-11.63v-18.88h32.67v18.81h-11.85Z"/>
  <path class="st0" d="M282.95,117.3c0,7.4-2.44,17.81-16.44,17.81-9.41,0-14.43-6.68-14.43-6.68v-18.52s7.11,6.17,14,6.17c3.09,0,4.95-1.36,4.95-3.52,0-6.25-18.95-.5-18.95-15.51,0-7.61,6.03-12.35,15.44-12.35,10.27,0,14.93,7.32,14.29,14.65h-14.57c.29-1.36.93-5.67-3.23-5.67-3.66,0-3.66,3.3-3.66,3.3,0,9.41,22.62.65,22.62,20.32Z"/>
</svg>